<?xml version="1.0" encoding="utf-8"?>
<!-- Generator: Adobe Illustrator 23.0.3, SVG Export Plug-In . SVG Version: 6.00 Build 0)  -->
<svg version="1.1" id="Layer_1" xmlns="http://www.w3.org/2000/svg" xmlns:xlink="http://www.w3.org/1999/xlink" x="0px" y="0px"
	 viewBox="0 0 180 100" style="enable-background:new 0 0 180 100;" xml:space="preserve">
<style type="text/css">
	.st0{fill:none;stroke:#231F20;stroke-width:3;stroke-miterlimit:10;}
</style>
<path class="st0" d="M62.33,66.79H39.67c-3.13,0-5.67-2.54-5.67-5.67V38.45c0-3.13,2.54-5.67,5.67-5.67h22.67
	c3.13,0,5.67,2.54,5.67,5.67v22.67C68,64.25,65.46,66.79,62.33,66.79z"/>
<path class="st0" d="M138.46,4.09h-34.93c-1.07,0-2.09,0.42-2.85,1.18l-24.7,24.7c-0.76,0.76-1.18,1.78-1.18,2.85v34.93
	c0,1.07,0.42,2.09,1.18,2.85l24.7,24.7c0.76,0.76,1.78,1.18,2.85,1.18h34.93c1.07,0,2.09-0.42,2.85-1.18l24.7-24.7
	c0.76-0.76,1.18-1.78,1.18-2.85V32.82c0-1.07-0.42-2.09-1.18-2.85l-24.7-24.7C140.56,4.52,139.53,4.09,138.46,4.09z"/>
<path class="st0" d="M24.54,58.79h-9.69c-2.02,0-3.65-1.64-3.65-3.65v-9.69c0-2.02,1.64-3.65,3.65-3.65h9.69
	c2.02,0,3.65,1.64,3.65,3.65v9.69C28.19,57.15,26.56,58.79,24.54,58.79z"/>
<path class="st0" d="M126.63,29.88h-11.25c-1.55,0-3.03,0.61-4.12,1.71l-7.96,7.96c-1.09,1.09-1.71,2.57-1.71,4.12v11.25
	c0,1.55,0.61,3.03,1.71,4.12l7.96,7.96c1.09,1.09,2.57,1.71,4.12,1.71h11.25c1.55,0,3.03-0.61,4.12-1.71l7.96-7.96
	c1.09-1.09,1.71-2.57,1.71-4.12V43.66c0-1.55-0.61-3.03-1.71-4.12l-7.96-7.96C129.65,30.49,128.17,29.88,126.63,29.88z"/>
</svg>
