<?xml version="1.0" encoding="utf-8"?>
<!-- Generator: Adobe Illustrator 23.0.3, SVG Export Plug-In . SVG Version: 6.00 Build 0)  -->
<svg version="1.1" id="Layer_1" xmlns="http://www.w3.org/2000/svg" xmlns:xlink="http://www.w3.org/1999/xlink" x="0px" y="0px"
	 viewBox="0 0 560 288" style="enable-background:new 0 0 560 288;" xml:space="preserve">
<style type="text/css">
	.st0{fill:#333030;}
</style>
<path class="st0" d="M398.4,162.1h-30.3l-21.4,21.4v30.3l21.4,21.4h30.3l21.4-21.4v-30.3L398.4,162.1z M415.3,211.8l-18.6,18.6
	h-26.4l-18.6-18.6v-26.4l18.6-18.6h26.4l18.6,18.6V211.8z"/>
<path class="st0" d="M338.4,185.2h-20.6c-3.3,0-6.1,2.7-6.1,6.1V208c0,3.3,2.7,6.1,6.1,6.1h20.6c3.3,0,6.1-2.7,6.1-6.1v-16.8
	C344.5,187.9,341.7,185.2,338.4,185.2z M340.6,204.6c0,3.3-2.7,6.1-6.1,6.1h-13.4c-3.3,0-6.1-2.7-6.1-6.1v-10.3
	c0-3.3,2.7-6.1,6.1-6.1h13.4c3.3,0,6.1,2.7,6.1,6.1V204.6z"/>
<circle class="st0" cx="383.3" cy="198.6" r="7.8"/>
<polygon class="st0" points="311.7,205.2 306.6,205.2 306.6,195.1 311.7,195.1 311.7,192.1 303.6,192.1 303.6,208.3 311.7,208.3 "/>
</svg>
